<svg width="25" height="25" viewBox="0 0 25 25" fill="none" xmlns="http://www.w3.org/2000/svg">
<path d="M2.5 22.5C1.8125 22.5 1.22396 22.2552 0.734375 21.7656C0.244792 21.276 0 20.6875 0 20V2.5C0 1.8125 0.244792 1.22396 0.734375 0.734375C1.22396 0.244792 1.8125 0 2.5 0H20C20.6875 0 21.276 0.244792 21.7656 0.734375C22.2552 1.22396 22.5 1.8125 22.5 2.5V10.875C22.1042 10.6875 21.6979 10.526 21.2812 10.3906C20.8646 10.2552 20.4375 10.1562 20 10.0938V2.5H2.5V20H10.0625C10.125 20.4583 10.224 20.8958 10.3594 21.3125C10.4948 21.7292 10.6562 22.125 10.8438 22.5H2.5ZM2.5 20V2.5V10.0938V10V20ZM5 17.5H10.0938C10.1562 17.0625 10.2552 16.6354 10.3906 16.2188C10.526 15.8021 10.6771 15.3958 10.8438 15H5V17.5ZM5 12.5H12.625C13.2917 11.875 14.0365 11.3542 14.8594 10.9375C15.6823 10.5208 16.5625 10.2396 17.5 10.0938V10H5V12.5ZM5 7.5H17.5V5H5V7.5ZM18.75 25C17.0208 25 15.5469 24.3906 14.3281 23.1719C13.1094 21.9531 12.5 20.4792 12.5 18.75C12.5 17.0208 13.1094 15.5469 14.3281 14.3281C15.5469 13.1094 17.0208 12.5 18.75 12.5C20.4792 12.5 21.9531 13.1094 23.1719 14.3281C24.3906 15.5469 25 17.0208 25 18.75C25 20.4792 24.3906 21.9531 23.1719 23.1719C21.9531 24.3906 20.4792 25 18.75 25ZM18.125 22.5H19.375V19.375H22.5V18.125H19.375V15H18.125V18.125H15V19.375H18.125V22.5Z" fill="#FFC788"/>
</svg>
