<svg width="14" height="18" viewBox="0 0 14 18" fill="none" xmlns="http://www.w3.org/2000/svg">
<path d="M2.29167 17.6667C1.66667 17.6667 1.12847 17.4549 0.677083 17.0312C0.225694 16.6076 0 16.0833 0 15.4583V3.83333C0 3.30556 0.163194 2.83333 0.489583 2.41667C0.815972 2 1.24306 1.73611 1.77083 1.625L10 0V13.3333L2.10417 14.9167C1.97917 14.9444 1.875 15.0104 1.79167 15.1146C1.70833 15.2188 1.66667 15.3333 1.66667 15.4583C1.66667 15.6111 1.72917 15.7396 1.85417 15.8438C1.97917 15.9479 2.125 16 2.29167 16H11.6667V2.66667H13.3333V17.6667H2.29167ZM4.16667 12.8125L8.33333 12V2.04167L4.16667 2.85417V12.8125ZM2.5 13.1458V3.1875L2.1875 3.25C2.03472 3.27778 1.90972 3.34375 1.8125 3.44792C1.71528 3.55208 1.66667 3.68056 1.66667 3.83333V13.3542C1.73611 13.3264 1.80903 13.3021 1.88542 13.2813C1.96181 13.2604 2.03472 13.2431 2.10417 13.2292L2.5 13.1458Z" fill="black"/>
</svg>
