<svg width="30" height="27" viewBox="0 0 30 27" fill="none" xmlns="http://www.w3.org/2000/svg">
<path d="M4.5 27V24H25.5V27H4.5ZM4.5 21.75L2.5875 9.7125C2.5375 9.7125 2.48125 9.71875 2.41875 9.73125C2.35625 9.74375 2.3 9.75 2.25 9.75C1.625 9.75 1.09375 9.53125 0.65625 9.09375C0.21875 8.65625 0 8.125 0 7.5C0 6.875 0.21875 6.34375 0.65625 5.90625C1.09375 5.46875 1.625 5.25 2.25 5.25C2.875 5.25 3.40625 5.46875 3.84375 5.90625C4.28125 6.34375 4.5 6.875 4.5 7.5C4.5 7.675 4.48125 7.8375 4.44375 7.9875C4.40625 8.1375 4.3625 8.275 4.3125 8.4L9 10.5L13.6875 4.0875C13.4125 3.8875 13.1875 3.625 13.0125 3.3C12.8375 2.975 12.75 2.625 12.75 2.25C12.75 1.625 12.9687 1.09375 13.4062 0.65625C13.8438 0.21875 14.375 0 15 0C15.625 0 16.1562 0.21875 16.5938 0.65625C17.0313 1.09375 17.25 1.625 17.25 2.25C17.25 2.625 17.1625 2.975 16.9875 3.3C16.8125 3.625 16.5875 3.8875 16.3125 4.0875L21 10.5L25.6875 8.4C25.6375 8.275 25.5938 8.1375 25.5563 7.9875C25.5188 7.8375 25.5 7.675 25.5 7.5C25.5 6.875 25.7187 6.34375 26.1562 5.90625C26.5938 5.46875 27.125 5.25 27.75 5.25C28.375 5.25 28.9062 5.46875 29.3438 5.90625C29.7813 6.34375 30 6.875 30 7.5C30 8.125 29.7813 8.65625 29.3438 9.09375C28.9062 9.53125 28.375 9.75 27.75 9.75C27.7 9.75 27.6438 9.74375 27.5813 9.73125C27.5188 9.71875 27.4625 9.7125 27.4125 9.7125L25.5 21.75H4.5ZM7.05 18.75H22.95L23.925 12.4875L19.9875 14.2125L15 7.35L10.0125 14.2125L6.075 12.4875L7.05 18.75Z" fill="#FFC788"/>
</svg>
