<svg width="25" height="23" viewBox="0 0 25 23" fill="none" xmlns="http://www.w3.org/2000/svg">
<path d="M2.5 22.5C1.8125 22.5 1.22396 22.2552 0.734375 21.7656C0.244792 21.276 0 20.6875 0 20V2.5C0 1.8125 0.244792 1.22396 0.734375 0.734375C1.22396 0.244792 1.8125 0 2.5 0H22.5C23.1875 0 23.776 0.244792 24.2656 0.734375C24.7552 1.22396 25 1.8125 25 2.5V20C25 20.6875 24.7552 21.276 24.2656 21.7656C23.776 22.2552 23.1875 22.5 22.5 22.5H2.5ZM2.5 20H22.5V2.5H2.5V20ZM3.75 17.5H10V15H3.75V17.5ZM15.6875 15L21.875 8.8125L20.0938 7.03125L15.6875 11.4688L13.9062 9.6875L12.1562 11.4688L15.6875 15ZM3.75 12.5H10V10H3.75V12.5ZM3.75 7.5H10V5H3.75V7.5Z" fill="#FFC788"/>
</svg>
